<svg width="83" height="83" viewBox="0 0 83 83" fill="none" xmlns="http://www.w3.org/2000/svg">
<rect x="0.726074" y="0.721161" width="81.929" height="81.929" fill="#1B2C50"/>
<path fill-rule="evenodd" clip-rule="evenodd" d="M29.4441 21.6117L29.3979 19.1122L24.3987 19.2046L24.4449 21.7041L24.5717 28.5591L18.1636 31.7803L16.7864 32.4726V34.014V61.7591V64.2591H19.2864H64.0948H66.5948V61.7591V50.0836V47.5836H64.0948H37.8668H35.3668V52.5836H37.8668H61.5948V59.2591H21.7864V35.5554L42.8111 24.9868L61.5948 33.626V37.3119V39.8119H66.5948V37.3119V32.0241V30.4222L65.1394 29.7529L43.8076 19.9416L42.7148 19.439L41.6402 19.9792L29.5265 26.0685L29.4441 21.6117Z" fill="white"/>
</svg>
