<svg width="689" height="142" viewBox="0 0 689 142" fill="none" xmlns="http://www.w3.org/2000/svg">
<path d="M203.555 82.8042V79.1479C203.555 68.4604 205.789 60.2573 210.258 54.5385C214.727 48.7885 220.93 45.9135 228.867 45.9135C236.086 45.9135 241.57 47.7885 245.32 51.5385C249.102 55.2573 251.008 60.1167 251.039 66.1167V67.7573H242.227V66.3979C242.227 62.3042 241.086 59.0698 238.805 56.6948C236.555 54.2885 233.18 53.0854 228.68 53.0854C223.711 53.0854 219.836 55.1792 217.055 59.3667C214.274 63.5542 212.883 69.6792 212.883 77.7417V84.3042C212.883 92.3042 214.367 98.4448 217.336 102.726C220.305 107.007 224.477 109.148 229.852 109.148C232.57 109.148 234.93 108.804 236.93 108.117C238.93 107.429 240.789 106.367 242.508 104.929V88.1948H228.867V81.4448H251.086V107.835C249.742 109.429 247.258 111.195 243.633 113.132C240.039 115.07 235.43 116.039 229.805 116.039C221.524 116.039 215.07 113.179 210.445 107.46C205.852 101.71 203.555 93.4917 203.555 82.8042ZM279.024 115.101V46.851H313.242V54.3979H288.07V77.1792H310.149V84.3042H288.07V115.101H279.024ZM310.383 115.101L331.43 46.851H342.399L363.258 115.101H354.211L338.367 61.8979C337.992 60.6167 337.68 59.5073 337.43 58.5698C337.18 57.601 336.914 56.6167 336.633 55.6167H336.492C336.18 56.6167 335.883 57.601 335.602 58.5698C335.352 59.5073 335.055 60.601 334.711 61.851L319.195 115.101H310.383ZM320.133 97.5698L321.727 90.9604H351.633L353.367 97.5698H320.133ZM364.992 82.8042V79.1479C364.992 67.4604 367.336 59.0073 372.024 53.7885C376.711 48.5385 382.742 45.9135 390.117 45.9135C397.43 45.9135 403.024 47.8198 406.899 51.6323C410.805 55.4135 412.758 60.8823 412.758 68.0385V70.3354H403.899V67.5229C403.899 62.7104 402.758 59.0698 400.477 56.601C398.195 54.101 394.774 52.851 390.211 52.851C385.211 52.851 381.336 54.8667 378.586 58.8979C375.836 62.8979 374.461 69.1167 374.461 77.5542V84.3979C374.461 92.7729 375.883 98.9917 378.727 103.054C381.602 107.117 385.508 109.148 390.445 109.148C394.852 109.148 398.18 107.929 400.43 105.492C402.711 103.023 403.867 99.2104 403.899 94.0542V91.7104H412.758V94.5698C412.727 101.195 410.789 106.429 406.945 110.273C403.102 114.085 397.477 115.992 390.07 115.992C382.133 115.992 375.961 113.335 371.555 108.023C367.18 102.71 364.992 94.3042 364.992 82.8042ZM415.945 115.101L436.992 46.851H447.961L468.82 115.101H459.774L443.93 61.8979C443.555 60.6167 443.242 59.5073 442.992 58.5698C442.742 57.601 442.477 56.6167 442.195 55.6167H442.055C441.742 56.6167 441.445 57.601 441.164 58.5698C440.914 59.5073 440.617 60.601 440.274 61.851L424.758 115.101H415.945ZM425.695 97.5698L427.289 90.9604H457.195L458.93 97.5698H425.695ZM473.742 115.101V46.851H492.117C500.524 46.851 507.086 49.6948 511.805 55.3823C516.524 61.0385 518.883 68.9448 518.883 79.101V82.7573C518.883 92.8823 516.555 100.804 511.899 106.523C507.274 112.242 500.68 115.101 492.117 115.101H473.742ZM482.649 108.117H491.555C497.367 108.117 501.836 105.992 504.961 101.742C508.086 97.4917 509.649 91.4292 509.649 83.5542V78.4448C509.649 70.476 508.008 64.4135 504.727 60.2573C501.477 56.101 497.086 54.0073 491.555 53.976H482.649V108.117ZM528.024 115.101V46.851H565.617V54.3979H536.883V76.5698H561.211V83.601H536.883V107.695H566.18V115.101H528.024ZM595.57 115.101L617.836 54.351H586.102V46.851H627.352V53.4135L605.133 115.101H595.57ZM633.352 86.5542V84.4448C633.352 72.351 636.227 62.9135 641.977 56.1323C647.758 49.3198 655.633 45.9135 665.602 45.9135H667.524V53.3667H665.789C658.445 53.3667 652.695 55.9917 648.539 61.2417C644.383 66.4604 642.305 74.7104 642.305 85.9917V86.976C642.305 95.2573 643.414 101.039 645.633 104.32C647.883 107.57 650.852 109.195 654.539 109.195C657.883 109.195 660.586 107.96 662.649 105.492C664.742 103.023 665.789 98.8979 665.789 93.1167C665.789 88.1479 664.805 84.4448 662.836 82.0073C660.899 79.5698 658.117 78.351 654.492 78.351C651.18 78.351 648.32 79.6323 645.914 82.1948C643.539 84.7573 642.352 88.1635 642.352 92.4135H639.352C639.352 86.1948 641.102 81.2573 644.602 77.601C648.102 73.9448 652.32 72.1167 657.258 72.1167C662.758 72.1167 667.07 73.976 670.195 77.6948C673.32 81.4135 674.883 86.6167 674.883 93.3042C674.883 100.335 672.961 105.882 669.117 109.945C665.305 114.007 660.383 116.039 654.352 116.039C647.82 116.039 642.68 113.726 638.93 109.101C635.211 104.445 633.352 96.9292 633.352 86.5542Z" fill="white"/>
<path fill-rule="evenodd" clip-rule="evenodd" d="M39.4596 8.65579L39.3162 0.897705L23.8 1.18455L23.9434 8.94264L24.3368 30.2188L4.44732 40.2167L0.172852 42.3654V47.1495V133.264V141.023H7.93227H147.007H154.766V133.264V97.0257V89.2663H147.007H65.6015H57.8421V104.785H65.6015H139.248V125.504H15.6917V51.9337L80.9475 19.1312L139.248 45.9454V57.3856V65.145H154.766V57.3856V40.9735V36.0015L150.249 33.924L84.0404 3.47216L80.6487 1.91219L77.3132 3.58889L39.7153 22.4884L39.4596 8.65579Z" fill="white"/>
</svg>
